G04 #@! TF.FileFunction,Legend,Bot*
%FSLAX46Y46*%
G04 Gerber Fmt 4.6, Leading zero omitted, Abs format (unit mm)*
G04 Created by KiCad (PCBNEW 4.0.4-stable) date 11/02/17 14:02:35*
%MOMM*%
%LPD*%
G01*
G04 APERTURE LIST*
%ADD10C,0.100000*%
%ADD11C,0.150000*%
%ADD12C,0.120000*%
G04 APERTURE END LIST*
D10*
D11*
X110020000Y-114950000D02*
X102400000Y-114950000D01*
X110020000Y-117490000D02*
X102400000Y-117490000D01*
X112840000Y-117770000D02*
X111290000Y-117770000D01*
X102400000Y-114950000D02*
X102400000Y-117490000D01*
X110020000Y-117490000D02*
X110020000Y-114950000D01*
X111290000Y-114670000D02*
X112840000Y-114670000D01*
X112840000Y-114670000D02*
X112840000Y-117770000D01*
X149930000Y-137580000D02*
X149930000Y-136030000D01*
X150210000Y-132220000D02*
X150210000Y-134760000D01*
X150210000Y-134760000D02*
X152750000Y-134760000D01*
X153030000Y-136030000D02*
X153030000Y-137580000D01*
X153030000Y-137580000D02*
X149930000Y-137580000D01*
X152750000Y-134760000D02*
X152750000Y-132220000D01*
X152750000Y-132220000D02*
X150210000Y-132220000D01*
X141740000Y-137600000D02*
X141740000Y-136050000D01*
X142020000Y-132240000D02*
X142020000Y-134780000D01*
X142020000Y-134780000D02*
X144560000Y-134780000D01*
X144840000Y-136050000D02*
X144840000Y-137600000D01*
X144840000Y-137600000D02*
X141740000Y-137600000D01*
X144560000Y-134780000D02*
X144560000Y-132240000D01*
X144560000Y-132240000D02*
X142020000Y-132240000D01*
X192432000Y-65756000D02*
X192432000Y-62200000D01*
X192432000Y-62200000D02*
X190146000Y-62200000D01*
X190146000Y-62200000D02*
X189638000Y-62708000D01*
X189638000Y-65756000D02*
X192388000Y-65756000D01*
X189638000Y-62700000D02*
X189638000Y-65700000D01*
X107232000Y-65366000D02*
X107232000Y-61810000D01*
X107232000Y-61810000D02*
X104946000Y-61810000D01*
X104946000Y-61810000D02*
X104438000Y-62318000D01*
X104438000Y-65366000D02*
X107188000Y-65366000D01*
X104438000Y-62310000D02*
X104438000Y-65310000D01*
D12*
X188850000Y-66120000D02*
X187650000Y-66120000D01*
X187650000Y-67880000D02*
X188850000Y-67880000D01*
X191650000Y-67880000D02*
X192850000Y-67880000D01*
X192850000Y-66120000D02*
X191650000Y-66120000D01*
X104000000Y-65740000D02*
X102800000Y-65740000D01*
X102800000Y-67500000D02*
X104000000Y-67500000D01*
X107170000Y-67460000D02*
X108370000Y-67460000D01*
X108370000Y-65700000D02*
X107170000Y-65700000D01*
D11*
X112028095Y-111572381D02*
X112028095Y-110572381D01*
X111647142Y-110572381D01*
X111551904Y-110620000D01*
X111504285Y-110667619D01*
X111456666Y-110762857D01*
X111456666Y-110905714D01*
X111504285Y-111000952D01*
X111551904Y-111048571D01*
X111647142Y-111096190D01*
X112028095Y-111096190D01*
X110551904Y-110572381D02*
X111028095Y-110572381D01*
X111075714Y-111048571D01*
X111028095Y-111000952D01*
X110932857Y-110953333D01*
X110694761Y-110953333D01*
X110599523Y-111000952D01*
X110551904Y-111048571D01*
X110504285Y-111143810D01*
X110504285Y-111381905D01*
X110551904Y-111477143D01*
X110599523Y-111524762D01*
X110694761Y-111572381D01*
X110932857Y-111572381D01*
X111028095Y-111524762D01*
X111075714Y-111477143D01*
X157032381Y-135291905D02*
X156032381Y-135291905D01*
X156032381Y-135672858D01*
X156080000Y-135768096D01*
X156127619Y-135815715D01*
X156222857Y-135863334D01*
X156365714Y-135863334D01*
X156460952Y-135815715D01*
X156508571Y-135768096D01*
X156556190Y-135672858D01*
X156556190Y-135291905D01*
X156032381Y-136196667D02*
X156032381Y-136815715D01*
X156413333Y-136482381D01*
X156413333Y-136625239D01*
X156460952Y-136720477D01*
X156508571Y-136768096D01*
X156603810Y-136815715D01*
X156841905Y-136815715D01*
X156937143Y-136768096D01*
X156984762Y-136720477D01*
X157032381Y-136625239D01*
X157032381Y-136339524D01*
X156984762Y-136244286D01*
X156937143Y-136196667D01*
X148842381Y-135311905D02*
X147842381Y-135311905D01*
X147842381Y-135692858D01*
X147890000Y-135788096D01*
X147937619Y-135835715D01*
X148032857Y-135883334D01*
X148175714Y-135883334D01*
X148270952Y-135835715D01*
X148318571Y-135788096D01*
X148366190Y-135692858D01*
X148366190Y-135311905D01*
X147842381Y-136216667D02*
X147842381Y-136883334D01*
X148842381Y-136454762D01*
X187080381Y-63124095D02*
X187889905Y-63124095D01*
X187985143Y-63171714D01*
X188032762Y-63219333D01*
X188080381Y-63314571D01*
X188080381Y-63505048D01*
X188032762Y-63600286D01*
X187985143Y-63647905D01*
X187889905Y-63695524D01*
X187080381Y-63695524D01*
X187080381Y-64076476D02*
X187080381Y-64743143D01*
X188080381Y-64314571D01*
X101880381Y-62734095D02*
X102689905Y-62734095D01*
X102785143Y-62781714D01*
X102832762Y-62829333D01*
X102880381Y-62924571D01*
X102880381Y-63115048D01*
X102832762Y-63210286D01*
X102785143Y-63257905D01*
X102689905Y-63305524D01*
X101880381Y-63305524D01*
X102308952Y-63924571D02*
X102261333Y-63829333D01*
X102213714Y-63781714D01*
X102118476Y-63734095D01*
X102070857Y-63734095D01*
X101975619Y-63781714D01*
X101928000Y-63829333D01*
X101880381Y-63924571D01*
X101880381Y-64115048D01*
X101928000Y-64210286D01*
X101975619Y-64257905D01*
X102070857Y-64305524D01*
X102118476Y-64305524D01*
X102213714Y-64257905D01*
X102261333Y-64210286D01*
X102308952Y-64115048D01*
X102308952Y-63924571D01*
X102356571Y-63829333D01*
X102404190Y-63781714D01*
X102499429Y-63734095D01*
X102689905Y-63734095D01*
X102785143Y-63781714D01*
X102832762Y-63829333D01*
X102880381Y-63924571D01*
X102880381Y-64115048D01*
X102832762Y-64210286D01*
X102785143Y-64257905D01*
X102689905Y-64305524D01*
X102499429Y-64305524D01*
X102404190Y-64257905D01*
X102356571Y-64210286D01*
X102308952Y-64115048D01*
X188416666Y-69152381D02*
X188750000Y-68676190D01*
X188988095Y-69152381D02*
X188988095Y-68152381D01*
X188607142Y-68152381D01*
X188511904Y-68200000D01*
X188464285Y-68247619D01*
X188416666Y-68342857D01*
X188416666Y-68485714D01*
X188464285Y-68580952D01*
X188511904Y-68628571D01*
X188607142Y-68676190D01*
X188988095Y-68676190D01*
X188083333Y-68152381D02*
X187416666Y-68152381D01*
X187845238Y-69152381D01*
X192416666Y-65752381D02*
X192750000Y-65276190D01*
X192988095Y-65752381D02*
X192988095Y-64752381D01*
X192607142Y-64752381D01*
X192511904Y-64800000D01*
X192464285Y-64847619D01*
X192416666Y-64942857D01*
X192416666Y-65085714D01*
X192464285Y-65180952D01*
X192511904Y-65228571D01*
X192607142Y-65276190D01*
X192988095Y-65276190D01*
X191845238Y-65180952D02*
X191940476Y-65133333D01*
X191988095Y-65085714D01*
X192035714Y-64990476D01*
X192035714Y-64942857D01*
X191988095Y-64847619D01*
X191940476Y-64800000D01*
X191845238Y-64752381D01*
X191654761Y-64752381D01*
X191559523Y-64800000D01*
X191511904Y-64847619D01*
X191464285Y-64942857D01*
X191464285Y-64990476D01*
X191511904Y-65085714D01*
X191559523Y-65133333D01*
X191654761Y-65180952D01*
X191845238Y-65180952D01*
X191940476Y-65228571D01*
X191988095Y-65276190D01*
X192035714Y-65371429D01*
X192035714Y-65561905D01*
X191988095Y-65657143D01*
X191940476Y-65704762D01*
X191845238Y-65752381D01*
X191654761Y-65752381D01*
X191559523Y-65704762D01*
X191511904Y-65657143D01*
X191464285Y-65561905D01*
X191464285Y-65371429D01*
X191511904Y-65276190D01*
X191559523Y-65228571D01*
X191654761Y-65180952D01*
X103566666Y-68772381D02*
X103900000Y-68296190D01*
X104138095Y-68772381D02*
X104138095Y-67772381D01*
X103757142Y-67772381D01*
X103661904Y-67820000D01*
X103614285Y-67867619D01*
X103566666Y-67962857D01*
X103566666Y-68105714D01*
X103614285Y-68200952D01*
X103661904Y-68248571D01*
X103757142Y-68296190D01*
X104138095Y-68296190D01*
X103090476Y-68772381D02*
X102900000Y-68772381D01*
X102804761Y-68724762D01*
X102757142Y-68677143D01*
X102661904Y-68534286D01*
X102614285Y-68343810D01*
X102614285Y-67962857D01*
X102661904Y-67867619D01*
X102709523Y-67820000D01*
X102804761Y-67772381D01*
X102995238Y-67772381D01*
X103090476Y-67820000D01*
X103138095Y-67867619D01*
X103185714Y-67962857D01*
X103185714Y-68200952D01*
X103138095Y-68296190D01*
X103090476Y-68343810D01*
X102995238Y-68391429D01*
X102804761Y-68391429D01*
X102709523Y-68343810D01*
X102661904Y-68296190D01*
X102614285Y-68200952D01*
X108412857Y-65332381D02*
X108746191Y-64856190D01*
X108984286Y-65332381D02*
X108984286Y-64332381D01*
X108603333Y-64332381D01*
X108508095Y-64380000D01*
X108460476Y-64427619D01*
X108412857Y-64522857D01*
X108412857Y-64665714D01*
X108460476Y-64760952D01*
X108508095Y-64808571D01*
X108603333Y-64856190D01*
X108984286Y-64856190D01*
X107460476Y-65332381D02*
X108031905Y-65332381D01*
X107746191Y-65332381D02*
X107746191Y-64332381D01*
X107841429Y-64475238D01*
X107936667Y-64570476D01*
X108031905Y-64618095D01*
X106841429Y-64332381D02*
X106746190Y-64332381D01*
X106650952Y-64380000D01*
X106603333Y-64427619D01*
X106555714Y-64522857D01*
X106508095Y-64713333D01*
X106508095Y-64951429D01*
X106555714Y-65141905D01*
X106603333Y-65237143D01*
X106650952Y-65284762D01*
X106746190Y-65332381D01*
X106841429Y-65332381D01*
X106936667Y-65284762D01*
X106984286Y-65237143D01*
X107031905Y-65141905D01*
X107079524Y-64951429D01*
X107079524Y-64713333D01*
X107031905Y-64522857D01*
X106984286Y-64427619D01*
X106936667Y-64380000D01*
X106841429Y-64332381D01*
M02*
