G04 #@! TF.FileFunction,Soldermask,Top*
%FSLAX46Y46*%
G04 Gerber Fmt 4.6, Leading zero omitted, Abs format (unit mm)*
G04 Created by KiCad (PCBNEW 4.0.4-stable) date 11/02/17 14:02:35*
%MOMM*%
%LPD*%
G01*
G04 APERTURE LIST*
%ADD10C,0.100000*%
%ADD11R,1.400000X1.400000*%
%ADD12R,1.700000X1.900000*%
%ADD13R,5.600000X1.000000*%
%ADD14R,2.000000X1.400000*%
%ADD15R,2.127200X2.432000*%
%ADD16O,2.127200X2.432000*%
%ADD17R,2.150000X0.850000*%
%ADD18C,2.400000*%
%ADD19R,2.432000X2.432000*%
%ADD20O,2.432000X2.432000*%
%ADD21R,2.432000X2.127200*%
%ADD22O,2.432000X2.127200*%
%ADD23R,1.924000X2.224000*%
%ADD24O,1.924000X2.224000*%
%ADD25R,1.600000X2.600000*%
%ADD26R,3.900000X2.600000*%
%ADD27R,1.000000X5.600000*%
%ADD28R,1.400000X2.000000*%
%ADD29R,0.700000X1.600000*%
%ADD30R,1.600000X0.700000*%
%ADD31R,1.900000X1.650000*%
%ADD32R,1.650000X1.900000*%
%ADD33R,1.900000X1.700000*%
%ADD34R,3.600000X1.900000*%
%ADD35R,1.900000X3.600000*%
%ADD36R,1.600000X1.600000*%
G04 APERTURE END LIST*
D10*
D11*
X183174000Y-113058000D03*
X183174000Y-116558000D03*
X188174000Y-116558000D03*
D12*
X113792000Y-99234000D03*
X113792000Y-101934000D03*
D13*
X185636500Y-96553500D03*
X185636500Y-99053500D03*
X185636500Y-101553500D03*
X185636500Y-104053500D03*
X185636500Y-106553500D03*
D14*
X185382500Y-94204000D03*
X185382500Y-108936000D03*
D15*
X111290000Y-116220000D03*
D16*
X108750000Y-116220000D03*
X106210000Y-116220000D03*
X103670000Y-116220000D03*
D17*
X156540000Y-131435000D03*
X156540000Y-132085000D03*
X156540000Y-132735000D03*
X156540000Y-133385000D03*
X156540000Y-134035000D03*
X156540000Y-134685000D03*
X156540000Y-135335000D03*
X156540000Y-135985000D03*
X156540000Y-136635000D03*
X156540000Y-137285000D03*
X156540000Y-137935000D03*
X156540000Y-138585000D03*
X163740000Y-138585000D03*
X163740000Y-137935000D03*
X163740000Y-137285000D03*
X163740000Y-136635000D03*
X163740000Y-135985000D03*
X163740000Y-135335000D03*
X163740000Y-134685000D03*
X163740000Y-134035000D03*
X163740000Y-133385000D03*
X163740000Y-132735000D03*
X163740000Y-132085000D03*
X163740000Y-131435000D03*
X138710000Y-138695000D03*
X138710000Y-138045000D03*
X138710000Y-137395000D03*
X138710000Y-136745000D03*
X138710000Y-136095000D03*
X138710000Y-135445000D03*
X138710000Y-134795000D03*
X138710000Y-134145000D03*
X138710000Y-133495000D03*
X138710000Y-132845000D03*
X138710000Y-132195000D03*
X138710000Y-131545000D03*
X131510000Y-131545000D03*
X131510000Y-132195000D03*
X131510000Y-132845000D03*
X131510000Y-133495000D03*
X131510000Y-134145000D03*
X131510000Y-134795000D03*
X131510000Y-135445000D03*
X131510000Y-136095000D03*
X131510000Y-136745000D03*
X131510000Y-137395000D03*
X131510000Y-138045000D03*
X131510000Y-138695000D03*
D18*
X129110000Y-117540000D03*
X129110000Y-113040000D03*
X135610000Y-117540000D03*
X135610000Y-113040000D03*
D19*
X137410000Y-91780000D03*
D20*
X137410000Y-94320000D03*
D21*
X118710000Y-124170000D03*
D22*
X118710000Y-121630000D03*
X118710000Y-119090000D03*
X118710000Y-116550000D03*
D19*
X151480000Y-136030000D03*
D20*
X151480000Y-133490000D03*
D15*
X169418000Y-121666000D03*
D16*
X166878000Y-121666000D03*
X164338000Y-121666000D03*
D19*
X143290000Y-136050000D03*
D20*
X143290000Y-133510000D03*
D23*
X137360000Y-99410000D03*
D24*
X137360000Y-107030000D03*
D25*
X143184568Y-87741830D03*
X145484568Y-87741830D03*
X147784568Y-87741830D03*
D26*
X145484568Y-81541830D03*
D27*
X118983500Y-85143500D03*
X121483500Y-85143500D03*
X123983500Y-85143500D03*
X126483500Y-85143500D03*
X128983500Y-85143500D03*
D28*
X116634000Y-85397500D03*
X131366000Y-85397500D03*
D13*
X109253500Y-106626500D03*
X109253500Y-104126500D03*
X109253500Y-101626500D03*
X109253500Y-99126500D03*
X109253500Y-96626500D03*
D14*
X109507500Y-108976000D03*
X109507500Y-94244000D03*
D27*
X167500000Y-84943500D03*
X170000000Y-84943500D03*
X172500000Y-84943500D03*
X175000000Y-84943500D03*
X177500000Y-84943500D03*
D28*
X165150500Y-85197500D03*
X179882500Y-85197500D03*
D25*
X152824568Y-87791830D03*
X155124568Y-87791830D03*
X157424568Y-87791830D03*
D26*
X155124568Y-81591830D03*
D29*
X144640000Y-115780000D03*
X145140000Y-115780000D03*
X145640000Y-115780000D03*
X146140000Y-115780000D03*
X146640000Y-115780000D03*
X147140000Y-115780000D03*
X147640000Y-115780000D03*
X148140000Y-115780000D03*
X148640000Y-115780000D03*
X149140000Y-115780000D03*
X149640000Y-115780000D03*
X150140000Y-115780000D03*
D30*
X151640000Y-114280000D03*
X151640000Y-113780000D03*
X151640000Y-113280000D03*
X151640000Y-112780000D03*
X151640000Y-112280000D03*
X151640000Y-111780000D03*
X151640000Y-111280000D03*
X151640000Y-110780000D03*
X151640000Y-110280000D03*
X151640000Y-109780000D03*
X151640000Y-109280000D03*
X151640000Y-108780000D03*
D29*
X150140000Y-107280000D03*
X149640000Y-107280000D03*
X149140000Y-107280000D03*
X148640000Y-107280000D03*
X148140000Y-107280000D03*
X147640000Y-107280000D03*
X147140000Y-107280000D03*
X146640000Y-107280000D03*
X146140000Y-107280000D03*
X145640000Y-107280000D03*
X145140000Y-107280000D03*
X144640000Y-107280000D03*
D30*
X143140000Y-108780000D03*
X143140000Y-109280000D03*
X143140000Y-109780000D03*
X143140000Y-110280000D03*
X143140000Y-110780000D03*
X143140000Y-111280000D03*
X143140000Y-111780000D03*
X143140000Y-112280000D03*
X143140000Y-112780000D03*
X143140000Y-113280000D03*
X143140000Y-113780000D03*
X143140000Y-114280000D03*
D31*
X120990000Y-89930000D03*
X118490000Y-89930000D03*
D32*
X114046000Y-104922000D03*
X114046000Y-107422000D03*
X179578000Y-97008000D03*
X179578000Y-94508000D03*
D31*
X169930000Y-90080000D03*
X167430000Y-90080000D03*
D32*
X139160000Y-123260000D03*
X139160000Y-120760000D03*
D31*
X145850000Y-119290000D03*
X143350000Y-119290000D03*
X145820000Y-121600000D03*
X143320000Y-121600000D03*
D32*
X126820000Y-133420000D03*
X126820000Y-130920000D03*
X168080000Y-133010000D03*
X168080000Y-135510000D03*
X127250000Y-138980000D03*
X127250000Y-136480000D03*
X167820000Y-138530000D03*
X167820000Y-141030000D03*
D33*
X127170000Y-90050000D03*
X124470000Y-90050000D03*
D12*
X180340000Y-102442000D03*
X180340000Y-99742000D03*
D33*
X175400000Y-90000000D03*
X172700000Y-90000000D03*
X169752000Y-112268000D03*
X167052000Y-112268000D03*
X170006000Y-106426000D03*
X167306000Y-106426000D03*
X170260000Y-109474000D03*
X167560000Y-109474000D03*
X171276000Y-116586000D03*
X168576000Y-116586000D03*
D34*
X146308548Y-95031830D03*
X142308548Y-95031830D03*
X146334568Y-91571830D03*
X142334568Y-91571830D03*
X155680000Y-94820000D03*
X151680000Y-94820000D03*
X155954568Y-91391830D03*
X151954568Y-91391830D03*
D35*
X124370000Y-132150000D03*
X124370000Y-128150000D03*
X171060000Y-128570000D03*
X171060000Y-132570000D03*
X124460000Y-136430000D03*
X124460000Y-140430000D03*
X171010000Y-140930000D03*
X171010000Y-136930000D03*
D32*
X157390000Y-105280000D03*
X157390000Y-107780000D03*
X140700000Y-115800000D03*
X140700000Y-113300000D03*
X139040000Y-115790000D03*
X139040000Y-113290000D03*
D36*
X174838000Y-109728000D03*
X177038000Y-109728000D03*
X174922000Y-112522000D03*
X177122000Y-112522000D03*
X175176000Y-115062000D03*
X177376000Y-115062000D03*
M02*
