G04 #@! TF.FileFunction,Legend,Top*
%FSLAX46Y46*%
G04 Gerber Fmt 4.6, Leading zero omitted, Abs format (unit mm)*
G04 Created by KiCad (PCBNEW 4.0.4-stable) date 11/02/17 14:02:35*
%MOMM*%
%LPD*%
G01*
G04 APERTURE LIST*
%ADD10C,0.100000*%
%ADD11C,0.150000*%
%ADD12C,0.203200*%
%ADD13C,0.120000*%
%ADD14C,0.152400*%
G04 APERTURE END LIST*
D10*
D11*
X183174000Y-112308000D02*
X186924000Y-112308000D01*
X188174000Y-113558000D02*
X188174000Y-117308000D01*
X188174000Y-113558000D02*
X186924000Y-112308000D01*
X183174000Y-117308000D02*
X188174000Y-117308000D01*
X183174000Y-112308000D02*
X183174000Y-117308000D01*
X112917000Y-101184000D02*
X112917000Y-99984000D01*
X114667000Y-99984000D02*
X114667000Y-101184000D01*
D10*
X194844000Y-101577000D02*
X186144000Y-101577000D01*
X192050000Y-94077000D02*
X192050000Y-109126500D01*
X194844000Y-94077000D02*
X186144500Y-94077000D01*
X186144500Y-109126500D02*
X194844000Y-109126500D01*
X194844000Y-94077000D02*
X194844000Y-109077000D01*
X186144000Y-94077000D02*
X186144000Y-109077000D01*
D11*
X157265000Y-130685000D02*
X157265000Y-130985000D01*
X163015000Y-130685000D02*
X163015000Y-130985000D01*
X163015000Y-139335000D02*
X163015000Y-139035000D01*
X157265000Y-139335000D02*
X157265000Y-139035000D01*
X157265000Y-130685000D02*
X163015000Y-130685000D01*
X157265000Y-139335000D02*
X163015000Y-139335000D01*
X157265000Y-130985000D02*
X155665000Y-130985000D01*
X137985000Y-139445000D02*
X137985000Y-139145000D01*
X132235000Y-139445000D02*
X132235000Y-139145000D01*
X132235000Y-130795000D02*
X132235000Y-131095000D01*
X137985000Y-130795000D02*
X137985000Y-131095000D01*
X137985000Y-139445000D02*
X132235000Y-139445000D01*
X137985000Y-130795000D02*
X132235000Y-130795000D01*
X137985000Y-139145000D02*
X139585000Y-139145000D01*
X134375564Y-115290000D02*
G75*
G03X134375564Y-115290000I-2015564J0D01*
G01*
X130110000Y-118540000D02*
X134610000Y-118540000D01*
X128860000Y-114540000D02*
X128860000Y-116040000D01*
X134610000Y-112040000D02*
X130110000Y-112040000D01*
X135860000Y-116040000D02*
X135860000Y-114540000D01*
X135860000Y-90230000D02*
X135860000Y-91780000D01*
X136140000Y-95590000D02*
X136140000Y-93050000D01*
X136140000Y-93050000D02*
X138680000Y-93050000D01*
X138960000Y-91780000D02*
X138960000Y-90230000D01*
X138960000Y-90230000D02*
X135860000Y-90230000D01*
X138680000Y-93050000D02*
X138680000Y-95590000D01*
X138680000Y-95590000D02*
X136140000Y-95590000D01*
X117440000Y-122900000D02*
X117440000Y-115280000D01*
X119980000Y-122900000D02*
X119980000Y-115280000D01*
X120260000Y-125720000D02*
X120260000Y-124170000D01*
X117440000Y-115280000D02*
X119980000Y-115280000D01*
X119980000Y-122900000D02*
X117440000Y-122900000D01*
X117160000Y-124170000D02*
X117160000Y-125720000D01*
X117160000Y-125720000D02*
X120260000Y-125720000D01*
X169418000Y-123216000D02*
X170968000Y-123216000D01*
X170968000Y-123216000D02*
X170968000Y-120116000D01*
X170968000Y-120116000D02*
X169418000Y-120116000D01*
X168148000Y-122936000D02*
X163068000Y-122936000D01*
X163068000Y-122936000D02*
X163068000Y-120396000D01*
X163068000Y-120396000D02*
X168148000Y-120396000D01*
X168148000Y-120396000D02*
X168148000Y-122936000D01*
X139510000Y-108240000D02*
X135210000Y-108240000D01*
X137360000Y-98200000D02*
X135210000Y-98200000D01*
X139510000Y-108240000D02*
X139510000Y-98200000D01*
X135210000Y-108240000D02*
X135210000Y-98200000D01*
X138000000Y-103220000D02*
X136720000Y-103220000D01*
X138000000Y-105250000D02*
X138000000Y-101190000D01*
X138000000Y-101190000D02*
X136720000Y-101190000D01*
X136720000Y-101190000D02*
X136720000Y-105250000D01*
X136720000Y-105250000D02*
X138000000Y-105250000D01*
D12*
X143584568Y-89641830D02*
G75*
G03X143584568Y-89641830I-400000J0D01*
G01*
X142184568Y-86441830D02*
X142184568Y-82841830D01*
X142184568Y-82841830D02*
X148784568Y-82841830D01*
X148784568Y-82841830D02*
X148784568Y-86441830D01*
X148784568Y-86441830D02*
X142184568Y-86441830D01*
D10*
X124007000Y-75936000D02*
X124007000Y-84636000D01*
X116507000Y-78730000D02*
X131556500Y-78730000D01*
X116507000Y-75936000D02*
X116507000Y-84635500D01*
X131556500Y-84635500D02*
X131556500Y-75936000D01*
X116507000Y-75936000D02*
X131507000Y-75936000D01*
X116507000Y-84636000D02*
X131507000Y-84636000D01*
X100046000Y-101603000D02*
X108746000Y-101603000D01*
X102840000Y-109103000D02*
X102840000Y-94053500D01*
X100046000Y-109103000D02*
X108745500Y-109103000D01*
X108745500Y-94053500D02*
X100046000Y-94053500D01*
X100046000Y-109103000D02*
X100046000Y-94103000D01*
X108746000Y-109103000D02*
X108746000Y-94103000D01*
X172523500Y-75736000D02*
X172523500Y-84436000D01*
X165023500Y-78530000D02*
X180073000Y-78530000D01*
X165023500Y-75736000D02*
X165023500Y-84435500D01*
X180073000Y-84435500D02*
X180073000Y-75736000D01*
X165023500Y-75736000D02*
X180023500Y-75736000D01*
X165023500Y-84436000D02*
X180023500Y-84436000D01*
D12*
X153224568Y-89691830D02*
G75*
G03X153224568Y-89691830I-400000J0D01*
G01*
X151824568Y-86491830D02*
X151824568Y-82891830D01*
X151824568Y-82891830D02*
X158424568Y-82891830D01*
X158424568Y-82891830D02*
X158424568Y-86491830D01*
X158424568Y-86491830D02*
X151824568Y-86491830D01*
D11*
X144859249Y-114280000D02*
G75*
G03X144859249Y-114280000I-199249J0D01*
G01*
X150690000Y-108230000D02*
X144090000Y-108230000D01*
X144090000Y-108230000D02*
X144090000Y-114830000D01*
X144090000Y-114830000D02*
X150690000Y-114830000D01*
X150690000Y-114830000D02*
X150690000Y-108230000D01*
X119240000Y-90780000D02*
X120240000Y-90780000D01*
X120240000Y-89080000D02*
X119240000Y-89080000D01*
X114896000Y-106672000D02*
X114896000Y-105672000D01*
X113196000Y-105672000D02*
X113196000Y-106672000D01*
X178728000Y-95258000D02*
X178728000Y-96258000D01*
X180428000Y-96258000D02*
X180428000Y-95258000D01*
X168180000Y-90930000D02*
X169180000Y-90930000D01*
X169180000Y-89230000D02*
X168180000Y-89230000D01*
X138310000Y-121510000D02*
X138310000Y-122510000D01*
X140010000Y-122510000D02*
X140010000Y-121510000D01*
X144100000Y-120140000D02*
X145100000Y-120140000D01*
X145100000Y-118440000D02*
X144100000Y-118440000D01*
X144070000Y-122450000D02*
X145070000Y-122450000D01*
X145070000Y-120750000D02*
X144070000Y-120750000D01*
X125970000Y-131670000D02*
X125970000Y-132670000D01*
X127670000Y-132670000D02*
X127670000Y-131670000D01*
X168930000Y-134760000D02*
X168930000Y-133760000D01*
X167230000Y-133760000D02*
X167230000Y-134760000D01*
X126400000Y-137230000D02*
X126400000Y-138230000D01*
X128100000Y-138230000D02*
X128100000Y-137230000D01*
X168670000Y-140280000D02*
X168670000Y-139280000D01*
X166970000Y-139280000D02*
X166970000Y-140280000D01*
X125220000Y-89175000D02*
X126420000Y-89175000D01*
X126420000Y-90925000D02*
X125220000Y-90925000D01*
X181215000Y-100492000D02*
X181215000Y-101692000D01*
X179465000Y-101692000D02*
X179465000Y-100492000D01*
X173450000Y-89125000D02*
X174650000Y-89125000D01*
X174650000Y-90875000D02*
X173450000Y-90875000D01*
X167802000Y-111393000D02*
X169002000Y-111393000D01*
X169002000Y-113143000D02*
X167802000Y-113143000D01*
X168056000Y-105551000D02*
X169256000Y-105551000D01*
X169256000Y-107301000D02*
X168056000Y-107301000D01*
X168310000Y-108599000D02*
X169510000Y-108599000D01*
X169510000Y-110349000D02*
X168310000Y-110349000D01*
X169326000Y-115711000D02*
X170526000Y-115711000D01*
X170526000Y-117461000D02*
X169326000Y-117461000D01*
X148208548Y-96081830D02*
X142708548Y-96081830D01*
X148208548Y-93981830D02*
X142708548Y-93981830D01*
X148208548Y-96081830D02*
X148208548Y-93981830D01*
X148234568Y-92621830D02*
X142734568Y-92621830D01*
X148234568Y-90521830D02*
X142734568Y-90521830D01*
X148234568Y-92621830D02*
X148234568Y-90521830D01*
X157580000Y-95870000D02*
X152080000Y-95870000D01*
X157580000Y-93770000D02*
X152080000Y-93770000D01*
X157580000Y-95870000D02*
X157580000Y-93770000D01*
X157854568Y-92441830D02*
X152354568Y-92441830D01*
X157854568Y-90341830D02*
X152354568Y-90341830D01*
X157854568Y-92441830D02*
X157854568Y-90341830D01*
X123320000Y-134050000D02*
X123320000Y-128550000D01*
X125420000Y-134050000D02*
X125420000Y-128550000D01*
X123320000Y-134050000D02*
X125420000Y-134050000D01*
X172110000Y-126670000D02*
X172110000Y-132170000D01*
X170010000Y-126670000D02*
X170010000Y-132170000D01*
X172110000Y-126670000D02*
X170010000Y-126670000D01*
X125510000Y-134530000D02*
X125510000Y-140030000D01*
X123410000Y-134530000D02*
X123410000Y-140030000D01*
X125510000Y-134530000D02*
X123410000Y-134530000D01*
X169960000Y-142830000D02*
X169960000Y-137330000D01*
X172060000Y-142830000D02*
X172060000Y-137330000D01*
X169960000Y-142830000D02*
X172060000Y-142830000D01*
D13*
X158240000Y-107030000D02*
X158240000Y-106030000D01*
X156540000Y-106030000D02*
X156540000Y-107030000D01*
X139850000Y-114050000D02*
X139850000Y-115050000D01*
X141550000Y-115050000D02*
X141550000Y-114050000D01*
X138190000Y-114040000D02*
X138190000Y-115040000D01*
X139890000Y-115040000D02*
X139890000Y-114040000D01*
X177738000Y-110428000D02*
X177738000Y-109028000D01*
X177738000Y-109028000D02*
X174938000Y-109028000D01*
X177738000Y-110428000D02*
X174938000Y-110428000D01*
X177822000Y-113222000D02*
X177822000Y-111822000D01*
X177822000Y-111822000D02*
X175022000Y-111822000D01*
X177822000Y-113222000D02*
X175022000Y-113222000D01*
X178076000Y-115762000D02*
X178076000Y-114362000D01*
X178076000Y-114362000D02*
X175276000Y-114362000D01*
X178076000Y-115762000D02*
X175276000Y-115762000D01*
D11*
X185578762Y-116069905D02*
X185626381Y-115927048D01*
X185626381Y-115688952D01*
X185578762Y-115593714D01*
X185531143Y-115546095D01*
X185435905Y-115498476D01*
X185340667Y-115498476D01*
X185245429Y-115546095D01*
X185197810Y-115593714D01*
X185150190Y-115688952D01*
X185102571Y-115879429D01*
X185054952Y-115974667D01*
X185007333Y-116022286D01*
X184912095Y-116069905D01*
X184816857Y-116069905D01*
X184721619Y-116022286D01*
X184674000Y-115974667D01*
X184626381Y-115879429D01*
X184626381Y-115641333D01*
X184674000Y-115498476D01*
X185626381Y-115069905D02*
X184626381Y-115069905D01*
X184626381Y-114688952D01*
X184674000Y-114593714D01*
X184721619Y-114546095D01*
X184816857Y-114498476D01*
X184959714Y-114498476D01*
X185054952Y-114546095D01*
X185102571Y-114593714D01*
X185150190Y-114688952D01*
X185150190Y-115069905D01*
X185626381Y-113546095D02*
X185626381Y-114117524D01*
X185626381Y-113831810D02*
X184626381Y-113831810D01*
X184769238Y-113927048D01*
X184864476Y-114022286D01*
X184912095Y-114117524D01*
X116344381Y-100750666D02*
X115868190Y-101084000D01*
X116344381Y-101322095D02*
X115344381Y-101322095D01*
X115344381Y-100941142D01*
X115392000Y-100845904D01*
X115439619Y-100798285D01*
X115534857Y-100750666D01*
X115677714Y-100750666D01*
X115772952Y-100798285D01*
X115820571Y-100845904D01*
X115868190Y-100941142D01*
X115868190Y-101322095D01*
X115439619Y-100369714D02*
X115392000Y-100322095D01*
X115344381Y-100226857D01*
X115344381Y-99988761D01*
X115392000Y-99893523D01*
X115439619Y-99845904D01*
X115534857Y-99798285D01*
X115630095Y-99798285D01*
X115772952Y-99845904D01*
X116344381Y-100417333D01*
X116344381Y-99798285D01*
X195129881Y-102839905D02*
X195939405Y-102839905D01*
X196034643Y-102792286D01*
X196082262Y-102744667D01*
X196129881Y-102649429D01*
X196129881Y-102458952D01*
X196082262Y-102363714D01*
X196034643Y-102316095D01*
X195939405Y-102268476D01*
X195129881Y-102268476D01*
X195463214Y-101363714D02*
X196129881Y-101363714D01*
X195082262Y-101601810D02*
X195796548Y-101839905D01*
X195796548Y-101220857D01*
X158901905Y-129212381D02*
X158901905Y-130021905D01*
X158949524Y-130117143D01*
X158997143Y-130164762D01*
X159092381Y-130212381D01*
X159282858Y-130212381D01*
X159378096Y-130164762D01*
X159425715Y-130117143D01*
X159473334Y-130021905D01*
X159473334Y-129212381D01*
X160473334Y-130212381D02*
X159901905Y-130212381D01*
X160187619Y-130212381D02*
X160187619Y-129212381D01*
X160092381Y-129355238D01*
X159997143Y-129450476D01*
X159901905Y-129498095D01*
X161092381Y-129212381D02*
X161187620Y-129212381D01*
X161282858Y-129260000D01*
X161330477Y-129307619D01*
X161378096Y-129402857D01*
X161425715Y-129593333D01*
X161425715Y-129831429D01*
X161378096Y-130021905D01*
X161330477Y-130117143D01*
X161282858Y-130164762D01*
X161187620Y-130212381D01*
X161092381Y-130212381D01*
X160997143Y-130164762D01*
X160949524Y-130117143D01*
X160901905Y-130021905D01*
X160854286Y-129831429D01*
X160854286Y-129593333D01*
X160901905Y-129402857D01*
X160949524Y-129307619D01*
X160997143Y-129260000D01*
X161092381Y-129212381D01*
X133871905Y-139822381D02*
X133871905Y-140631905D01*
X133919524Y-140727143D01*
X133967143Y-140774762D01*
X134062381Y-140822381D01*
X134252858Y-140822381D01*
X134348096Y-140774762D01*
X134395715Y-140727143D01*
X134443334Y-140631905D01*
X134443334Y-139822381D01*
X135443334Y-140822381D02*
X134871905Y-140822381D01*
X135157619Y-140822381D02*
X135157619Y-139822381D01*
X135062381Y-139965238D01*
X134967143Y-140060476D01*
X134871905Y-140108095D01*
X135824286Y-139917619D02*
X135871905Y-139870000D01*
X135967143Y-139822381D01*
X136205239Y-139822381D01*
X136300477Y-139870000D01*
X136348096Y-139917619D01*
X136395715Y-140012857D01*
X136395715Y-140108095D01*
X136348096Y-140250952D01*
X135776667Y-140822381D01*
X136395715Y-140822381D01*
X131026667Y-111444762D02*
X131169524Y-111492381D01*
X131407620Y-111492381D01*
X131502858Y-111444762D01*
X131550477Y-111397143D01*
X131598096Y-111301905D01*
X131598096Y-111206667D01*
X131550477Y-111111429D01*
X131502858Y-111063810D01*
X131407620Y-111016190D01*
X131217143Y-110968571D01*
X131121905Y-110920952D01*
X131074286Y-110873333D01*
X131026667Y-110778095D01*
X131026667Y-110682857D01*
X131074286Y-110587619D01*
X131121905Y-110540000D01*
X131217143Y-110492381D01*
X131455239Y-110492381D01*
X131598096Y-110540000D01*
X131931429Y-110492381D02*
X132169524Y-111492381D01*
X132360001Y-110778095D01*
X132550477Y-111492381D01*
X132788572Y-110492381D01*
X133121905Y-110587619D02*
X133169524Y-110540000D01*
X133264762Y-110492381D01*
X133502858Y-110492381D01*
X133598096Y-110540000D01*
X133645715Y-110587619D01*
X133693334Y-110682857D01*
X133693334Y-110778095D01*
X133645715Y-110920952D01*
X133074286Y-111492381D01*
X133693334Y-111492381D01*
X142962381Y-92518095D02*
X141962381Y-92518095D01*
X141962381Y-92137142D01*
X142010000Y-92041904D01*
X142057619Y-91994285D01*
X142152857Y-91946666D01*
X142295714Y-91946666D01*
X142390952Y-91994285D01*
X142438571Y-92041904D01*
X142486190Y-92137142D01*
X142486190Y-92518095D01*
X142962381Y-90994285D02*
X142962381Y-91565714D01*
X142962381Y-91280000D02*
X141962381Y-91280000D01*
X142105238Y-91375238D01*
X142200476Y-91470476D01*
X142248095Y-91565714D01*
X114062381Y-124908095D02*
X113062381Y-124908095D01*
X113062381Y-124527142D01*
X113110000Y-124431904D01*
X113157619Y-124384285D01*
X113252857Y-124336666D01*
X113395714Y-124336666D01*
X113490952Y-124384285D01*
X113538571Y-124431904D01*
X113586190Y-124527142D01*
X113586190Y-124908095D01*
X113157619Y-123955714D02*
X113110000Y-123908095D01*
X113062381Y-123812857D01*
X113062381Y-123574761D01*
X113110000Y-123479523D01*
X113157619Y-123431904D01*
X113252857Y-123384285D01*
X113348095Y-123384285D01*
X113490952Y-123431904D01*
X114062381Y-124003333D01*
X114062381Y-123384285D01*
X168679905Y-127218381D02*
X168679905Y-126218381D01*
X169060858Y-126218381D01*
X169156096Y-126266000D01*
X169203715Y-126313619D01*
X169251334Y-126408857D01*
X169251334Y-126551714D01*
X169203715Y-126646952D01*
X169156096Y-126694571D01*
X169060858Y-126742190D01*
X168679905Y-126742190D01*
X170108477Y-126551714D02*
X170108477Y-127218381D01*
X169870381Y-126170762D02*
X169632286Y-126885048D01*
X170251334Y-126885048D01*
X136026667Y-109814762D02*
X136169524Y-109862381D01*
X136407620Y-109862381D01*
X136502858Y-109814762D01*
X136550477Y-109767143D01*
X136598096Y-109671905D01*
X136598096Y-109576667D01*
X136550477Y-109481429D01*
X136502858Y-109433810D01*
X136407620Y-109386190D01*
X136217143Y-109338571D01*
X136121905Y-109290952D01*
X136074286Y-109243333D01*
X136026667Y-109148095D01*
X136026667Y-109052857D01*
X136074286Y-108957619D01*
X136121905Y-108910000D01*
X136217143Y-108862381D01*
X136455239Y-108862381D01*
X136598096Y-108910000D01*
X136931429Y-108862381D02*
X137169524Y-109862381D01*
X137360001Y-109148095D01*
X137550477Y-109862381D01*
X137788572Y-108862381D01*
X138693334Y-109862381D02*
X138121905Y-109862381D01*
X138407619Y-109862381D02*
X138407619Y-108862381D01*
X138312381Y-109005238D01*
X138217143Y-109100476D01*
X138121905Y-109148095D01*
D14*
X150147282Y-85222401D02*
X150764139Y-85222401D01*
X150836711Y-85186116D01*
X150872997Y-85149830D01*
X150909282Y-85077259D01*
X150909282Y-84932116D01*
X150872997Y-84859544D01*
X150836711Y-84823259D01*
X150764139Y-84786973D01*
X150147282Y-84786973D01*
X150909282Y-84024973D02*
X150909282Y-84460401D01*
X150909282Y-84242687D02*
X150147282Y-84242687D01*
X150256139Y-84315258D01*
X150328711Y-84387830D01*
X150364997Y-84460401D01*
D11*
X123746095Y-74554881D02*
X123746095Y-75364405D01*
X123793714Y-75459643D01*
X123841333Y-75507262D01*
X123936571Y-75554881D01*
X124127048Y-75554881D01*
X124222286Y-75507262D01*
X124269905Y-75459643D01*
X124317524Y-75364405D01*
X124317524Y-74554881D01*
X124746095Y-74650119D02*
X124793714Y-74602500D01*
X124888952Y-74554881D01*
X125127048Y-74554881D01*
X125222286Y-74602500D01*
X125269905Y-74650119D01*
X125317524Y-74745357D01*
X125317524Y-74840595D01*
X125269905Y-74983452D01*
X124698476Y-75554881D01*
X125317524Y-75554881D01*
X98664881Y-101863905D02*
X99474405Y-101863905D01*
X99569643Y-101816286D01*
X99617262Y-101768667D01*
X99664881Y-101673429D01*
X99664881Y-101482952D01*
X99617262Y-101387714D01*
X99569643Y-101340095D01*
X99474405Y-101292476D01*
X98664881Y-101292476D01*
X98664881Y-100911524D02*
X98664881Y-100292476D01*
X99045833Y-100625810D01*
X99045833Y-100482952D01*
X99093452Y-100387714D01*
X99141071Y-100340095D01*
X99236310Y-100292476D01*
X99474405Y-100292476D01*
X99569643Y-100340095D01*
X99617262Y-100387714D01*
X99664881Y-100482952D01*
X99664881Y-100768667D01*
X99617262Y-100863905D01*
X99569643Y-100911524D01*
X172262595Y-74354881D02*
X172262595Y-75164405D01*
X172310214Y-75259643D01*
X172357833Y-75307262D01*
X172453071Y-75354881D01*
X172643548Y-75354881D01*
X172738786Y-75307262D01*
X172786405Y-75259643D01*
X172834024Y-75164405D01*
X172834024Y-74354881D01*
X173786405Y-74354881D02*
X173310214Y-74354881D01*
X173262595Y-74831071D01*
X173310214Y-74783452D01*
X173405452Y-74735833D01*
X173643548Y-74735833D01*
X173738786Y-74783452D01*
X173786405Y-74831071D01*
X173834024Y-74926310D01*
X173834024Y-75164405D01*
X173786405Y-75259643D01*
X173738786Y-75307262D01*
X173643548Y-75354881D01*
X173405452Y-75354881D01*
X173310214Y-75307262D01*
X173262595Y-75259643D01*
D14*
X159787282Y-85272401D02*
X160404139Y-85272401D01*
X160476711Y-85236116D01*
X160512997Y-85199830D01*
X160549282Y-85127259D01*
X160549282Y-84982116D01*
X160512997Y-84909544D01*
X160476711Y-84873259D01*
X160404139Y-84836973D01*
X159787282Y-84836973D01*
X159787282Y-84147544D02*
X159787282Y-84292687D01*
X159823568Y-84365258D01*
X159859854Y-84401544D01*
X159968711Y-84474115D01*
X160113854Y-84510401D01*
X160404139Y-84510401D01*
X160476711Y-84474115D01*
X160512997Y-84437830D01*
X160549282Y-84365258D01*
X160549282Y-84220115D01*
X160512997Y-84147544D01*
X160476711Y-84111258D01*
X160404139Y-84074973D01*
X160222711Y-84074973D01*
X160150139Y-84111258D01*
X160113854Y-84147544D01*
X160077568Y-84220115D01*
X160077568Y-84365258D01*
X160113854Y-84437830D01*
X160150139Y-84474115D01*
X160222711Y-84510401D01*
D11*
X152228095Y-106582381D02*
X152228095Y-107391905D01*
X152275714Y-107487143D01*
X152323333Y-107534762D01*
X152418571Y-107582381D01*
X152609048Y-107582381D01*
X152704286Y-107534762D01*
X152751905Y-107487143D01*
X152799524Y-107391905D01*
X152799524Y-106582381D01*
X153323333Y-107582381D02*
X153513809Y-107582381D01*
X153609048Y-107534762D01*
X153656667Y-107487143D01*
X153751905Y-107344286D01*
X153799524Y-107153810D01*
X153799524Y-106772857D01*
X153751905Y-106677619D01*
X153704286Y-106630000D01*
X153609048Y-106582381D01*
X153418571Y-106582381D01*
X153323333Y-106630000D01*
X153275714Y-106677619D01*
X153228095Y-106772857D01*
X153228095Y-107010952D01*
X153275714Y-107106190D01*
X153323333Y-107153810D01*
X153418571Y-107201429D01*
X153609048Y-107201429D01*
X153704286Y-107153810D01*
X153751905Y-107106190D01*
X153799524Y-107010952D01*
X119573334Y-92387143D02*
X119525715Y-92434762D01*
X119382858Y-92482381D01*
X119287620Y-92482381D01*
X119144762Y-92434762D01*
X119049524Y-92339524D01*
X119001905Y-92244286D01*
X118954286Y-92053810D01*
X118954286Y-91910952D01*
X119001905Y-91720476D01*
X119049524Y-91625238D01*
X119144762Y-91530000D01*
X119287620Y-91482381D01*
X119382858Y-91482381D01*
X119525715Y-91530000D01*
X119573334Y-91577619D01*
X120525715Y-92482381D02*
X119954286Y-92482381D01*
X120240000Y-92482381D02*
X120240000Y-91482381D01*
X120144762Y-91625238D01*
X120049524Y-91720476D01*
X119954286Y-91768095D01*
X116503143Y-106338666D02*
X116550762Y-106386285D01*
X116598381Y-106529142D01*
X116598381Y-106624380D01*
X116550762Y-106767238D01*
X116455524Y-106862476D01*
X116360286Y-106910095D01*
X116169810Y-106957714D01*
X116026952Y-106957714D01*
X115836476Y-106910095D01*
X115741238Y-106862476D01*
X115646000Y-106767238D01*
X115598381Y-106624380D01*
X115598381Y-106529142D01*
X115646000Y-106386285D01*
X115693619Y-106338666D01*
X115693619Y-105957714D02*
X115646000Y-105910095D01*
X115598381Y-105814857D01*
X115598381Y-105576761D01*
X115646000Y-105481523D01*
X115693619Y-105433904D01*
X115788857Y-105386285D01*
X115884095Y-105386285D01*
X116026952Y-105433904D01*
X116598381Y-106005333D01*
X116598381Y-105386285D01*
X177835143Y-95924666D02*
X177882762Y-95972285D01*
X177930381Y-96115142D01*
X177930381Y-96210380D01*
X177882762Y-96353238D01*
X177787524Y-96448476D01*
X177692286Y-96496095D01*
X177501810Y-96543714D01*
X177358952Y-96543714D01*
X177168476Y-96496095D01*
X177073238Y-96448476D01*
X176978000Y-96353238D01*
X176930381Y-96210380D01*
X176930381Y-96115142D01*
X176978000Y-95972285D01*
X177025619Y-95924666D01*
X176930381Y-95591333D02*
X176930381Y-94972285D01*
X177311333Y-95305619D01*
X177311333Y-95162761D01*
X177358952Y-95067523D01*
X177406571Y-95019904D01*
X177501810Y-94972285D01*
X177739905Y-94972285D01*
X177835143Y-95019904D01*
X177882762Y-95067523D01*
X177930381Y-95162761D01*
X177930381Y-95448476D01*
X177882762Y-95543714D01*
X177835143Y-95591333D01*
X168513334Y-92537143D02*
X168465715Y-92584762D01*
X168322858Y-92632381D01*
X168227620Y-92632381D01*
X168084762Y-92584762D01*
X167989524Y-92489524D01*
X167941905Y-92394286D01*
X167894286Y-92203810D01*
X167894286Y-92060952D01*
X167941905Y-91870476D01*
X167989524Y-91775238D01*
X168084762Y-91680000D01*
X168227620Y-91632381D01*
X168322858Y-91632381D01*
X168465715Y-91680000D01*
X168513334Y-91727619D01*
X169370477Y-91965714D02*
X169370477Y-92632381D01*
X169132381Y-91584762D02*
X168894286Y-92299048D01*
X169513334Y-92299048D01*
X137417143Y-122176666D02*
X137464762Y-122224285D01*
X137512381Y-122367142D01*
X137512381Y-122462380D01*
X137464762Y-122605238D01*
X137369524Y-122700476D01*
X137274286Y-122748095D01*
X137083810Y-122795714D01*
X136940952Y-122795714D01*
X136750476Y-122748095D01*
X136655238Y-122700476D01*
X136560000Y-122605238D01*
X136512381Y-122462380D01*
X136512381Y-122367142D01*
X136560000Y-122224285D01*
X136607619Y-122176666D01*
X137512381Y-121700476D02*
X137512381Y-121510000D01*
X137464762Y-121414761D01*
X137417143Y-121367142D01*
X137274286Y-121271904D01*
X137083810Y-121224285D01*
X136702857Y-121224285D01*
X136607619Y-121271904D01*
X136560000Y-121319523D01*
X136512381Y-121414761D01*
X136512381Y-121605238D01*
X136560000Y-121700476D01*
X136607619Y-121748095D01*
X136702857Y-121795714D01*
X136940952Y-121795714D01*
X137036190Y-121748095D01*
X137083810Y-121700476D01*
X137131429Y-121605238D01*
X137131429Y-121414761D01*
X137083810Y-121319523D01*
X137036190Y-121271904D01*
X136940952Y-121224285D01*
X143957143Y-121747143D02*
X143909524Y-121794762D01*
X143766667Y-121842381D01*
X143671429Y-121842381D01*
X143528571Y-121794762D01*
X143433333Y-121699524D01*
X143385714Y-121604286D01*
X143338095Y-121413810D01*
X143338095Y-121270952D01*
X143385714Y-121080476D01*
X143433333Y-120985238D01*
X143528571Y-120890000D01*
X143671429Y-120842381D01*
X143766667Y-120842381D01*
X143909524Y-120890000D01*
X143957143Y-120937619D01*
X144909524Y-121842381D02*
X144338095Y-121842381D01*
X144623809Y-121842381D02*
X144623809Y-120842381D01*
X144528571Y-120985238D01*
X144433333Y-121080476D01*
X144338095Y-121128095D01*
X145242857Y-120842381D02*
X145861905Y-120842381D01*
X145528571Y-121223333D01*
X145671429Y-121223333D01*
X145766667Y-121270952D01*
X145814286Y-121318571D01*
X145861905Y-121413810D01*
X145861905Y-121651905D01*
X145814286Y-121747143D01*
X145766667Y-121794762D01*
X145671429Y-121842381D01*
X145385714Y-121842381D01*
X145290476Y-121794762D01*
X145242857Y-121747143D01*
X143927143Y-124057143D02*
X143879524Y-124104762D01*
X143736667Y-124152381D01*
X143641429Y-124152381D01*
X143498571Y-124104762D01*
X143403333Y-124009524D01*
X143355714Y-123914286D01*
X143308095Y-123723810D01*
X143308095Y-123580952D01*
X143355714Y-123390476D01*
X143403333Y-123295238D01*
X143498571Y-123200000D01*
X143641429Y-123152381D01*
X143736667Y-123152381D01*
X143879524Y-123200000D01*
X143927143Y-123247619D01*
X144879524Y-124152381D02*
X144308095Y-124152381D01*
X144593809Y-124152381D02*
X144593809Y-123152381D01*
X144498571Y-123295238D01*
X144403333Y-123390476D01*
X144308095Y-123438095D01*
X145736667Y-123485714D02*
X145736667Y-124152381D01*
X145498571Y-123104762D02*
X145260476Y-123819048D01*
X145879524Y-123819048D01*
X125077143Y-132812857D02*
X125124762Y-132860476D01*
X125172381Y-133003333D01*
X125172381Y-133098571D01*
X125124762Y-133241429D01*
X125029524Y-133336667D01*
X124934286Y-133384286D01*
X124743810Y-133431905D01*
X124600952Y-133431905D01*
X124410476Y-133384286D01*
X124315238Y-133336667D01*
X124220000Y-133241429D01*
X124172381Y-133098571D01*
X124172381Y-133003333D01*
X124220000Y-132860476D01*
X124267619Y-132812857D01*
X125172381Y-131860476D02*
X125172381Y-132431905D01*
X125172381Y-132146191D02*
X124172381Y-132146191D01*
X124315238Y-132241429D01*
X124410476Y-132336667D01*
X124458095Y-132431905D01*
X124172381Y-131003333D02*
X124172381Y-131193810D01*
X124220000Y-131289048D01*
X124267619Y-131336667D01*
X124410476Y-131431905D01*
X124600952Y-131479524D01*
X124981905Y-131479524D01*
X125077143Y-131431905D01*
X125124762Y-131384286D01*
X125172381Y-131289048D01*
X125172381Y-131098571D01*
X125124762Y-131003333D01*
X125077143Y-130955714D01*
X124981905Y-130908095D01*
X124743810Y-130908095D01*
X124648571Y-130955714D01*
X124600952Y-131003333D01*
X124553333Y-131098571D01*
X124553333Y-131289048D01*
X124600952Y-131384286D01*
X124648571Y-131431905D01*
X124743810Y-131479524D01*
X170537143Y-134902857D02*
X170584762Y-134950476D01*
X170632381Y-135093333D01*
X170632381Y-135188571D01*
X170584762Y-135331429D01*
X170489524Y-135426667D01*
X170394286Y-135474286D01*
X170203810Y-135521905D01*
X170060952Y-135521905D01*
X169870476Y-135474286D01*
X169775238Y-135426667D01*
X169680000Y-135331429D01*
X169632381Y-135188571D01*
X169632381Y-135093333D01*
X169680000Y-134950476D01*
X169727619Y-134902857D01*
X170632381Y-133950476D02*
X170632381Y-134521905D01*
X170632381Y-134236191D02*
X169632381Y-134236191D01*
X169775238Y-134331429D01*
X169870476Y-134426667D01*
X169918095Y-134521905D01*
X170060952Y-133379048D02*
X170013333Y-133474286D01*
X169965714Y-133521905D01*
X169870476Y-133569524D01*
X169822857Y-133569524D01*
X169727619Y-133521905D01*
X169680000Y-133474286D01*
X169632381Y-133379048D01*
X169632381Y-133188571D01*
X169680000Y-133093333D01*
X169727619Y-133045714D01*
X169822857Y-132998095D01*
X169870476Y-132998095D01*
X169965714Y-133045714D01*
X170013333Y-133093333D01*
X170060952Y-133188571D01*
X170060952Y-133379048D01*
X170108571Y-133474286D01*
X170156190Y-133521905D01*
X170251429Y-133569524D01*
X170441905Y-133569524D01*
X170537143Y-133521905D01*
X170584762Y-133474286D01*
X170632381Y-133379048D01*
X170632381Y-133188571D01*
X170584762Y-133093333D01*
X170537143Y-133045714D01*
X170441905Y-132998095D01*
X170251429Y-132998095D01*
X170156190Y-133045714D01*
X170108571Y-133093333D01*
X170060952Y-133188571D01*
X125507143Y-138372857D02*
X125554762Y-138420476D01*
X125602381Y-138563333D01*
X125602381Y-138658571D01*
X125554762Y-138801429D01*
X125459524Y-138896667D01*
X125364286Y-138944286D01*
X125173810Y-138991905D01*
X125030952Y-138991905D01*
X124840476Y-138944286D01*
X124745238Y-138896667D01*
X124650000Y-138801429D01*
X124602381Y-138658571D01*
X124602381Y-138563333D01*
X124650000Y-138420476D01*
X124697619Y-138372857D01*
X125602381Y-137420476D02*
X125602381Y-137991905D01*
X125602381Y-137706191D02*
X124602381Y-137706191D01*
X124745238Y-137801429D01*
X124840476Y-137896667D01*
X124888095Y-137991905D01*
X125602381Y-136944286D02*
X125602381Y-136753810D01*
X125554762Y-136658571D01*
X125507143Y-136610952D01*
X125364286Y-136515714D01*
X125173810Y-136468095D01*
X124792857Y-136468095D01*
X124697619Y-136515714D01*
X124650000Y-136563333D01*
X124602381Y-136658571D01*
X124602381Y-136849048D01*
X124650000Y-136944286D01*
X124697619Y-136991905D01*
X124792857Y-137039524D01*
X125030952Y-137039524D01*
X125126190Y-136991905D01*
X125173810Y-136944286D01*
X125221429Y-136849048D01*
X125221429Y-136658571D01*
X125173810Y-136563333D01*
X125126190Y-136515714D01*
X125030952Y-136468095D01*
X170277143Y-140422857D02*
X170324762Y-140470476D01*
X170372381Y-140613333D01*
X170372381Y-140708571D01*
X170324762Y-140851429D01*
X170229524Y-140946667D01*
X170134286Y-140994286D01*
X169943810Y-141041905D01*
X169800952Y-141041905D01*
X169610476Y-140994286D01*
X169515238Y-140946667D01*
X169420000Y-140851429D01*
X169372381Y-140708571D01*
X169372381Y-140613333D01*
X169420000Y-140470476D01*
X169467619Y-140422857D01*
X169467619Y-140041905D02*
X169420000Y-139994286D01*
X169372381Y-139899048D01*
X169372381Y-139660952D01*
X169420000Y-139565714D01*
X169467619Y-139518095D01*
X169562857Y-139470476D01*
X169658095Y-139470476D01*
X169800952Y-139518095D01*
X170372381Y-140089524D01*
X170372381Y-139470476D01*
X169467619Y-139089524D02*
X169420000Y-139041905D01*
X169372381Y-138946667D01*
X169372381Y-138708571D01*
X169420000Y-138613333D01*
X169467619Y-138565714D01*
X169562857Y-138518095D01*
X169658095Y-138518095D01*
X169800952Y-138565714D01*
X170372381Y-139137143D01*
X170372381Y-138518095D01*
X125653334Y-92602381D02*
X125320000Y-92126190D01*
X125081905Y-92602381D02*
X125081905Y-91602381D01*
X125462858Y-91602381D01*
X125558096Y-91650000D01*
X125605715Y-91697619D01*
X125653334Y-91792857D01*
X125653334Y-91935714D01*
X125605715Y-92030952D01*
X125558096Y-92078571D01*
X125462858Y-92126190D01*
X125081905Y-92126190D01*
X126605715Y-92602381D02*
X126034286Y-92602381D01*
X126320000Y-92602381D02*
X126320000Y-91602381D01*
X126224762Y-91745238D01*
X126129524Y-91840476D01*
X126034286Y-91888095D01*
X178692381Y-101258666D02*
X178216190Y-101592000D01*
X178692381Y-101830095D02*
X177692381Y-101830095D01*
X177692381Y-101449142D01*
X177740000Y-101353904D01*
X177787619Y-101306285D01*
X177882857Y-101258666D01*
X178025714Y-101258666D01*
X178120952Y-101306285D01*
X178168571Y-101353904D01*
X178216190Y-101449142D01*
X178216190Y-101830095D01*
X177692381Y-100925333D02*
X177692381Y-100306285D01*
X178073333Y-100639619D01*
X178073333Y-100496761D01*
X178120952Y-100401523D01*
X178168571Y-100353904D01*
X178263810Y-100306285D01*
X178501905Y-100306285D01*
X178597143Y-100353904D01*
X178644762Y-100401523D01*
X178692381Y-100496761D01*
X178692381Y-100782476D01*
X178644762Y-100877714D01*
X178597143Y-100925333D01*
X173883334Y-92552381D02*
X173550000Y-92076190D01*
X173311905Y-92552381D02*
X173311905Y-91552381D01*
X173692858Y-91552381D01*
X173788096Y-91600000D01*
X173835715Y-91647619D01*
X173883334Y-91742857D01*
X173883334Y-91885714D01*
X173835715Y-91980952D01*
X173788096Y-92028571D01*
X173692858Y-92076190D01*
X173311905Y-92076190D01*
X174740477Y-91885714D02*
X174740477Y-92552381D01*
X174502381Y-91504762D02*
X174264286Y-92219048D01*
X174883334Y-92219048D01*
X168235334Y-114820381D02*
X167902000Y-114344190D01*
X167663905Y-114820381D02*
X167663905Y-113820381D01*
X168044858Y-113820381D01*
X168140096Y-113868000D01*
X168187715Y-113915619D01*
X168235334Y-114010857D01*
X168235334Y-114153714D01*
X168187715Y-114248952D01*
X168140096Y-114296571D01*
X168044858Y-114344190D01*
X167663905Y-114344190D01*
X169140096Y-113820381D02*
X168663905Y-113820381D01*
X168616286Y-114296571D01*
X168663905Y-114248952D01*
X168759143Y-114201333D01*
X168997239Y-114201333D01*
X169092477Y-114248952D01*
X169140096Y-114296571D01*
X169187715Y-114391810D01*
X169187715Y-114629905D01*
X169140096Y-114725143D01*
X169092477Y-114772762D01*
X168997239Y-114820381D01*
X168759143Y-114820381D01*
X168663905Y-114772762D01*
X168616286Y-114725143D01*
X168489334Y-108978381D02*
X168156000Y-108502190D01*
X167917905Y-108978381D02*
X167917905Y-107978381D01*
X168298858Y-107978381D01*
X168394096Y-108026000D01*
X168441715Y-108073619D01*
X168489334Y-108168857D01*
X168489334Y-108311714D01*
X168441715Y-108406952D01*
X168394096Y-108454571D01*
X168298858Y-108502190D01*
X167917905Y-108502190D01*
X169346477Y-107978381D02*
X169156000Y-107978381D01*
X169060762Y-108026000D01*
X169013143Y-108073619D01*
X168917905Y-108216476D01*
X168870286Y-108406952D01*
X168870286Y-108787905D01*
X168917905Y-108883143D01*
X168965524Y-108930762D01*
X169060762Y-108978381D01*
X169251239Y-108978381D01*
X169346477Y-108930762D01*
X169394096Y-108883143D01*
X169441715Y-108787905D01*
X169441715Y-108549810D01*
X169394096Y-108454571D01*
X169346477Y-108406952D01*
X169251239Y-108359333D01*
X169060762Y-108359333D01*
X168965524Y-108406952D01*
X168917905Y-108454571D01*
X168870286Y-108549810D01*
X168267143Y-112026381D02*
X167933809Y-111550190D01*
X167695714Y-112026381D02*
X167695714Y-111026381D01*
X168076667Y-111026381D01*
X168171905Y-111074000D01*
X168219524Y-111121619D01*
X168267143Y-111216857D01*
X168267143Y-111359714D01*
X168219524Y-111454952D01*
X168171905Y-111502571D01*
X168076667Y-111550190D01*
X167695714Y-111550190D01*
X169219524Y-112026381D02*
X168648095Y-112026381D01*
X168933809Y-112026381D02*
X168933809Y-111026381D01*
X168838571Y-111169238D01*
X168743333Y-111264476D01*
X168648095Y-111312095D01*
X170171905Y-112026381D02*
X169600476Y-112026381D01*
X169886190Y-112026381D02*
X169886190Y-111026381D01*
X169790952Y-111169238D01*
X169695714Y-111264476D01*
X169600476Y-111312095D01*
X169283143Y-119138381D02*
X168949809Y-118662190D01*
X168711714Y-119138381D02*
X168711714Y-118138381D01*
X169092667Y-118138381D01*
X169187905Y-118186000D01*
X169235524Y-118233619D01*
X169283143Y-118328857D01*
X169283143Y-118471714D01*
X169235524Y-118566952D01*
X169187905Y-118614571D01*
X169092667Y-118662190D01*
X168711714Y-118662190D01*
X170235524Y-119138381D02*
X169664095Y-119138381D01*
X169949809Y-119138381D02*
X169949809Y-118138381D01*
X169854571Y-118281238D01*
X169759333Y-118376476D01*
X169664095Y-118424095D01*
X170616476Y-118233619D02*
X170664095Y-118186000D01*
X170759333Y-118138381D01*
X170997429Y-118138381D01*
X171092667Y-118186000D01*
X171140286Y-118233619D01*
X171187905Y-118328857D01*
X171187905Y-118424095D01*
X171140286Y-118566952D01*
X170568857Y-119138381D01*
X171187905Y-119138381D01*
X144141882Y-97938973D02*
X144094263Y-97986592D01*
X143951406Y-98034211D01*
X143856168Y-98034211D01*
X143713310Y-97986592D01*
X143618072Y-97891354D01*
X143570453Y-97796116D01*
X143522834Y-97605640D01*
X143522834Y-97462782D01*
X143570453Y-97272306D01*
X143618072Y-97177068D01*
X143713310Y-97081830D01*
X143856168Y-97034211D01*
X143951406Y-97034211D01*
X144094263Y-97081830D01*
X144141882Y-97129449D01*
X145046644Y-97034211D02*
X144570453Y-97034211D01*
X144522834Y-97510401D01*
X144570453Y-97462782D01*
X144665691Y-97415163D01*
X144903787Y-97415163D01*
X144999025Y-97462782D01*
X145046644Y-97510401D01*
X145094263Y-97605640D01*
X145094263Y-97843735D01*
X145046644Y-97938973D01*
X144999025Y-97986592D01*
X144903787Y-98034211D01*
X144665691Y-98034211D01*
X144570453Y-97986592D01*
X144522834Y-97938973D01*
X144167902Y-94478973D02*
X144120283Y-94526592D01*
X143977426Y-94574211D01*
X143882188Y-94574211D01*
X143739330Y-94526592D01*
X143644092Y-94431354D01*
X143596473Y-94336116D01*
X143548854Y-94145640D01*
X143548854Y-94002782D01*
X143596473Y-93812306D01*
X143644092Y-93717068D01*
X143739330Y-93621830D01*
X143882188Y-93574211D01*
X143977426Y-93574211D01*
X144120283Y-93621830D01*
X144167902Y-93669449D01*
X145025045Y-93574211D02*
X144834568Y-93574211D01*
X144739330Y-93621830D01*
X144691711Y-93669449D01*
X144596473Y-93812306D01*
X144548854Y-94002782D01*
X144548854Y-94383735D01*
X144596473Y-94478973D01*
X144644092Y-94526592D01*
X144739330Y-94574211D01*
X144929807Y-94574211D01*
X145025045Y-94526592D01*
X145072664Y-94478973D01*
X145120283Y-94383735D01*
X145120283Y-94145640D01*
X145072664Y-94050401D01*
X145025045Y-94002782D01*
X144929807Y-93955163D01*
X144739330Y-93955163D01*
X144644092Y-94002782D01*
X144596473Y-94050401D01*
X144548854Y-94145640D01*
X153513334Y-97727143D02*
X153465715Y-97774762D01*
X153322858Y-97822381D01*
X153227620Y-97822381D01*
X153084762Y-97774762D01*
X152989524Y-97679524D01*
X152941905Y-97584286D01*
X152894286Y-97393810D01*
X152894286Y-97250952D01*
X152941905Y-97060476D01*
X152989524Y-96965238D01*
X153084762Y-96870000D01*
X153227620Y-96822381D01*
X153322858Y-96822381D01*
X153465715Y-96870000D01*
X153513334Y-96917619D01*
X153846667Y-96822381D02*
X154513334Y-96822381D01*
X154084762Y-97822381D01*
X153787902Y-94298973D02*
X153740283Y-94346592D01*
X153597426Y-94394211D01*
X153502188Y-94394211D01*
X153359330Y-94346592D01*
X153264092Y-94251354D01*
X153216473Y-94156116D01*
X153168854Y-93965640D01*
X153168854Y-93822782D01*
X153216473Y-93632306D01*
X153264092Y-93537068D01*
X153359330Y-93441830D01*
X153502188Y-93394211D01*
X153597426Y-93394211D01*
X153740283Y-93441830D01*
X153787902Y-93489449D01*
X154359330Y-93822782D02*
X154264092Y-93775163D01*
X154216473Y-93727544D01*
X154168854Y-93632306D01*
X154168854Y-93584687D01*
X154216473Y-93489449D01*
X154264092Y-93441830D01*
X154359330Y-93394211D01*
X154549807Y-93394211D01*
X154645045Y-93441830D01*
X154692664Y-93489449D01*
X154740283Y-93584687D01*
X154740283Y-93632306D01*
X154692664Y-93727544D01*
X154645045Y-93775163D01*
X154549807Y-93822782D01*
X154359330Y-93822782D01*
X154264092Y-93870401D01*
X154216473Y-93918020D01*
X154168854Y-94013259D01*
X154168854Y-94203735D01*
X154216473Y-94298973D01*
X154264092Y-94346592D01*
X154359330Y-94394211D01*
X154549807Y-94394211D01*
X154645045Y-94346592D01*
X154692664Y-94298973D01*
X154740283Y-94203735D01*
X154740283Y-94013259D01*
X154692664Y-93918020D01*
X154645045Y-93870401D01*
X154549807Y-93822782D01*
X122177143Y-130792857D02*
X122224762Y-130840476D01*
X122272381Y-130983333D01*
X122272381Y-131078571D01*
X122224762Y-131221429D01*
X122129524Y-131316667D01*
X122034286Y-131364286D01*
X121843810Y-131411905D01*
X121700952Y-131411905D01*
X121510476Y-131364286D01*
X121415238Y-131316667D01*
X121320000Y-131221429D01*
X121272381Y-131078571D01*
X121272381Y-130983333D01*
X121320000Y-130840476D01*
X121367619Y-130792857D01*
X122272381Y-129840476D02*
X122272381Y-130411905D01*
X122272381Y-130126191D02*
X121272381Y-130126191D01*
X121415238Y-130221429D01*
X121510476Y-130316667D01*
X121558095Y-130411905D01*
X121272381Y-128935714D02*
X121272381Y-129411905D01*
X121748571Y-129459524D01*
X121700952Y-129411905D01*
X121653333Y-129316667D01*
X121653333Y-129078571D01*
X121700952Y-128983333D01*
X121748571Y-128935714D01*
X121843810Y-128888095D01*
X122081905Y-128888095D01*
X122177143Y-128935714D01*
X122224762Y-128983333D01*
X122272381Y-129078571D01*
X122272381Y-129316667D01*
X122224762Y-129411905D01*
X122177143Y-129459524D01*
X173967143Y-131212857D02*
X174014762Y-131260476D01*
X174062381Y-131403333D01*
X174062381Y-131498571D01*
X174014762Y-131641429D01*
X173919524Y-131736667D01*
X173824286Y-131784286D01*
X173633810Y-131831905D01*
X173490952Y-131831905D01*
X173300476Y-131784286D01*
X173205238Y-131736667D01*
X173110000Y-131641429D01*
X173062381Y-131498571D01*
X173062381Y-131403333D01*
X173110000Y-131260476D01*
X173157619Y-131212857D01*
X174062381Y-130260476D02*
X174062381Y-130831905D01*
X174062381Y-130546191D02*
X173062381Y-130546191D01*
X173205238Y-130641429D01*
X173300476Y-130736667D01*
X173348095Y-130831905D01*
X173062381Y-129927143D02*
X173062381Y-129260476D01*
X174062381Y-129689048D01*
X127367143Y-139072857D02*
X127414762Y-139120476D01*
X127462381Y-139263333D01*
X127462381Y-139358571D01*
X127414762Y-139501429D01*
X127319524Y-139596667D01*
X127224286Y-139644286D01*
X127033810Y-139691905D01*
X126890952Y-139691905D01*
X126700476Y-139644286D01*
X126605238Y-139596667D01*
X126510000Y-139501429D01*
X126462381Y-139358571D01*
X126462381Y-139263333D01*
X126510000Y-139120476D01*
X126557619Y-139072857D01*
X126557619Y-138691905D02*
X126510000Y-138644286D01*
X126462381Y-138549048D01*
X126462381Y-138310952D01*
X126510000Y-138215714D01*
X126557619Y-138168095D01*
X126652857Y-138120476D01*
X126748095Y-138120476D01*
X126890952Y-138168095D01*
X127462381Y-138739524D01*
X127462381Y-138120476D01*
X126462381Y-137501429D02*
X126462381Y-137406190D01*
X126510000Y-137310952D01*
X126557619Y-137263333D01*
X126652857Y-137215714D01*
X126843333Y-137168095D01*
X127081429Y-137168095D01*
X127271905Y-137215714D01*
X127367143Y-137263333D01*
X127414762Y-137310952D01*
X127462381Y-137406190D01*
X127462381Y-137501429D01*
X127414762Y-137596667D01*
X127367143Y-137644286D01*
X127271905Y-137691905D01*
X127081429Y-137739524D01*
X126843333Y-137739524D01*
X126652857Y-137691905D01*
X126557619Y-137644286D01*
X126510000Y-137596667D01*
X126462381Y-137501429D01*
X168817143Y-139572857D02*
X168864762Y-139620476D01*
X168912381Y-139763333D01*
X168912381Y-139858571D01*
X168864762Y-140001429D01*
X168769524Y-140096667D01*
X168674286Y-140144286D01*
X168483810Y-140191905D01*
X168340952Y-140191905D01*
X168150476Y-140144286D01*
X168055238Y-140096667D01*
X167960000Y-140001429D01*
X167912381Y-139858571D01*
X167912381Y-139763333D01*
X167960000Y-139620476D01*
X168007619Y-139572857D01*
X168007619Y-139191905D02*
X167960000Y-139144286D01*
X167912381Y-139049048D01*
X167912381Y-138810952D01*
X167960000Y-138715714D01*
X168007619Y-138668095D01*
X168102857Y-138620476D01*
X168198095Y-138620476D01*
X168340952Y-138668095D01*
X168912381Y-139239524D01*
X168912381Y-138620476D01*
X168912381Y-137668095D02*
X168912381Y-138239524D01*
X168912381Y-137953810D02*
X167912381Y-137953810D01*
X168055238Y-138049048D01*
X168150476Y-138144286D01*
X168198095Y-138239524D01*
X159497143Y-107172857D02*
X159544762Y-107220476D01*
X159592381Y-107363333D01*
X159592381Y-107458571D01*
X159544762Y-107601429D01*
X159449524Y-107696667D01*
X159354286Y-107744286D01*
X159163810Y-107791905D01*
X159020952Y-107791905D01*
X158830476Y-107744286D01*
X158735238Y-107696667D01*
X158640000Y-107601429D01*
X158592381Y-107458571D01*
X158592381Y-107363333D01*
X158640000Y-107220476D01*
X158687619Y-107172857D01*
X159592381Y-106220476D02*
X159592381Y-106791905D01*
X159592381Y-106506191D02*
X158592381Y-106506191D01*
X158735238Y-106601429D01*
X158830476Y-106696667D01*
X158878095Y-106791905D01*
X158592381Y-105601429D02*
X158592381Y-105506190D01*
X158640000Y-105410952D01*
X158687619Y-105363333D01*
X158782857Y-105315714D01*
X158973333Y-105268095D01*
X159211429Y-105268095D01*
X159401905Y-105315714D01*
X159497143Y-105363333D01*
X159544762Y-105410952D01*
X159592381Y-105506190D01*
X159592381Y-105601429D01*
X159544762Y-105696667D01*
X159497143Y-105744286D01*
X159401905Y-105791905D01*
X159211429Y-105839524D01*
X158973333Y-105839524D01*
X158782857Y-105791905D01*
X158687619Y-105744286D01*
X158640000Y-105696667D01*
X158592381Y-105601429D01*
X139307143Y-115192857D02*
X139354762Y-115240476D01*
X139402381Y-115383333D01*
X139402381Y-115478571D01*
X139354762Y-115621429D01*
X139259524Y-115716667D01*
X139164286Y-115764286D01*
X138973810Y-115811905D01*
X138830952Y-115811905D01*
X138640476Y-115764286D01*
X138545238Y-115716667D01*
X138450000Y-115621429D01*
X138402381Y-115478571D01*
X138402381Y-115383333D01*
X138450000Y-115240476D01*
X138497619Y-115192857D01*
X139402381Y-114240476D02*
X139402381Y-114811905D01*
X139402381Y-114526191D02*
X138402381Y-114526191D01*
X138545238Y-114621429D01*
X138640476Y-114716667D01*
X138688095Y-114811905D01*
X139402381Y-113288095D02*
X139402381Y-113859524D01*
X139402381Y-113573810D02*
X138402381Y-113573810D01*
X138545238Y-113669048D01*
X138640476Y-113764286D01*
X138688095Y-113859524D01*
X137647143Y-115182857D02*
X137694762Y-115230476D01*
X137742381Y-115373333D01*
X137742381Y-115468571D01*
X137694762Y-115611429D01*
X137599524Y-115706667D01*
X137504286Y-115754286D01*
X137313810Y-115801905D01*
X137170952Y-115801905D01*
X136980476Y-115754286D01*
X136885238Y-115706667D01*
X136790000Y-115611429D01*
X136742381Y-115468571D01*
X136742381Y-115373333D01*
X136790000Y-115230476D01*
X136837619Y-115182857D01*
X137742381Y-114230476D02*
X137742381Y-114801905D01*
X137742381Y-114516191D02*
X136742381Y-114516191D01*
X136885238Y-114611429D01*
X136980476Y-114706667D01*
X137028095Y-114801905D01*
X136837619Y-113849524D02*
X136790000Y-113801905D01*
X136742381Y-113706667D01*
X136742381Y-113468571D01*
X136790000Y-113373333D01*
X136837619Y-113325714D01*
X136932857Y-113278095D01*
X137028095Y-113278095D01*
X137170952Y-113325714D01*
X137742381Y-113897143D01*
X137742381Y-113278095D01*
X175199905Y-111630381D02*
X175199905Y-110630381D01*
X175438000Y-110630381D01*
X175580858Y-110678000D01*
X175676096Y-110773238D01*
X175723715Y-110868476D01*
X175771334Y-111058952D01*
X175771334Y-111201810D01*
X175723715Y-111392286D01*
X175676096Y-111487524D01*
X175580858Y-111582762D01*
X175438000Y-111630381D01*
X175199905Y-111630381D01*
X176723715Y-111630381D02*
X176152286Y-111630381D01*
X176438000Y-111630381D02*
X176438000Y-110630381D01*
X176342762Y-110773238D01*
X176247524Y-110868476D01*
X176152286Y-110916095D01*
X174783905Y-114424381D02*
X174783905Y-113424381D01*
X175022000Y-113424381D01*
X175164858Y-113472000D01*
X175260096Y-113567238D01*
X175307715Y-113662476D01*
X175355334Y-113852952D01*
X175355334Y-113995810D01*
X175307715Y-114186286D01*
X175260096Y-114281524D01*
X175164858Y-114376762D01*
X175022000Y-114424381D01*
X174783905Y-114424381D01*
X176117239Y-113900571D02*
X176260096Y-113948190D01*
X176307715Y-113995810D01*
X176355334Y-114091048D01*
X176355334Y-114233905D01*
X176307715Y-114329143D01*
X176260096Y-114376762D01*
X176164858Y-114424381D01*
X175783905Y-114424381D01*
X175783905Y-113424381D01*
X176117239Y-113424381D01*
X176212477Y-113472000D01*
X176260096Y-113519619D01*
X176307715Y-113614857D01*
X176307715Y-113710095D01*
X176260096Y-113805333D01*
X176212477Y-113852952D01*
X176117239Y-113900571D01*
X175783905Y-113900571D01*
X177307715Y-114424381D02*
X176736286Y-114424381D01*
X177022000Y-114424381D02*
X177022000Y-113424381D01*
X176926762Y-113567238D01*
X176831524Y-113662476D01*
X176736286Y-113710095D01*
X175014095Y-116964381D02*
X175014095Y-115964381D01*
X175252190Y-115964381D01*
X175395048Y-116012000D01*
X175490286Y-116107238D01*
X175537905Y-116202476D01*
X175585524Y-116392952D01*
X175585524Y-116535810D01*
X175537905Y-116726286D01*
X175490286Y-116821524D01*
X175395048Y-116916762D01*
X175252190Y-116964381D01*
X175014095Y-116964381D01*
X176014095Y-116964381D02*
X176014095Y-115964381D01*
X176585524Y-116964381D01*
X176585524Y-115964381D01*
X177585524Y-116964381D02*
X177014095Y-116964381D01*
X177299809Y-116964381D02*
X177299809Y-115964381D01*
X177204571Y-116107238D01*
X177109333Y-116202476D01*
X177014095Y-116250095D01*
M02*
