M48
;DRILL file {KiCad 4.0.4-stable} date 11/02/17 13:45:14
;FORMAT={-:-/ absolute / metric / decimal}
FMAT,2
METRIC,TZ
T1C0.500
T2C0.762
T3C1.016
T4C1.100
%
G90
G05
M71
T1
X108.78Y-83.42
X114.25Y-96.59
X115.81Y-118.11
X120.36Y-109.25
X124.52Y-117.75
X125.571Y-118.821
X128.99Y-90.92
X129.14Y-127.55
X136.75Y-122.14
X137.668Y-85.09
X140.65Y-135.86
X143.27Y-130.36
X147.066Y-103.378
X148.86Y-98.37
X149.86Y-142.12
X150.06Y-127.69
X150.3Y-88.91
X152.65Y-129.83
X154.47Y-136.3
X154.686Y-101.6
X156.21Y-112.776
X156.464Y-114.554
X159.22Y-91.24
X160.56Y-99.19
X160.65Y-113.48
X162.49Y-81.53
X163.42Y-105.21
X165.73Y-137.43
X172.48Y-92.72
T2
X137.36Y-99.41
X137.36Y-107.03
T3
X103.67Y-116.22
X106.21Y-116.22
X108.75Y-116.22
X111.29Y-116.22
X118.71Y-116.55
X118.71Y-119.09
X118.71Y-121.63
X118.71Y-124.17
X137.41Y-91.78
X137.41Y-94.32
X143.29Y-133.51
X143.29Y-136.05
X151.48Y-133.49
X151.48Y-136.03
X164.338Y-121.666
X166.878Y-121.666
X169.418Y-121.666
T4
X129.11Y-113.04
X129.11Y-117.54
X135.61Y-113.04
X135.61Y-117.54
T0
M30
